<?xml version="1.0" encoding="utf-8" standalone="no"?>
<!DOCTYPE svg PUBLIC "-//W3C//DTD SVG 1.1//EN"
  "http://www.w3.org/Graphics/SVG/1.1/DTD/svg11.dtd">
<svg xmlns:xlink="http://www.w3.org/1999/xlink" width="568.974687pt" height="279.834063pt" viewBox="0 0 568.974687 279.834063" xmlns="http://www.w3.org/2000/svg" version="1.1">
 <metadata>
  <rdf:RDF xmlns:dc="http://purl.org/dc/elements/1.1/" xmlns:cc="http://creativecommons.org/ns#" xmlns:rdf="http://www.w3.org/1999/02/22-rdf-syntax-ns#">
   <cc:Work>
    <dc:type rdf:resource="http://purl.org/dc/dcmitype/StillImage"/>
    <dc:date>2025-08-29T03:15:24.770748</dc:date>
    <dc:format>image/svg+xml</dc:format>
    <dc:creator>
     <cc:Agent>
      <dc:title>Matplotlib v3.10.5, https://matplotlib.org/</dc:title>
     </cc:Agent>
    </dc:creator>
   </cc:Work>
  </rdf:RDF>
 </metadata>
 <defs>
  <style type="text/css">*{stroke-linejoin: round; stroke-linecap: butt}</style>
 </defs>
 <g id="figure_1">
  <g id="patch_1">
   <path d="M 0 279.834063 
L 568.974687 279.834063 
L 568.974687 0 
L 0 0 
z
" style="fill: #ffffff"/>
  </g>
  <g id="axes_1">
   <g id="patch_2">
    <path d="M 101.179688 238.277813 
L 561.774687 238.277813 
L 561.774687 29.837813 
L 101.179688 29.837813 
z
" style="fill: #f7f8fa"/>
   </g>
   <g id="matplotlib.axis_1">
    <g id="xtick_1">
     <g id="line2d_1">
      <path d="M 101.179688 238.277813 
L 101.179688 29.837813 
" clip-path="url(#pa4a9a2a760)" style="fill: none; stroke: #dfe3e8; stroke-opacity: 0.8; stroke-linecap: square"/>
     </g>
     <g id="line2d_2">
      <defs>
       <path id="m069a336504" d="M 0 0 
L 0 3.5 
" style="stroke: #000000; stroke-width: 0.8"/>
      </defs>
      <g>
       <use xlink:href="#m069a336504" x="101.179688" y="238.277813" style="stroke: #000000; stroke-width: 0.8"/>
      </g>
     </g>
     <g id="text_1">
      <!-- 0 -->
      <g transform="translate(97.998438 252.87625) scale(0.1 -0.1)">
       <defs>
        <path id="DejaVuSans-30" d="M 2034 4250 
Q 1547 4250 1301 3770 
Q 1056 3291 1056 2328 
Q 1056 1369 1301 889 
Q 1547 409 2034 409 
Q 2525 409 2770 889 
Q 3016 1369 3016 2328 
Q 3016 3291 2770 3770 
Q 2525 4250 2034 4250 
z
M 2034 4750 
Q 2819 4750 3233 4129 
Q 3647 3509 3647 2328 
Q 3647 1150 3233 529 
Q 2819 -91 2034 -91 
Q 1250 -91 836 529 
Q 422 1150 422 2328 
Q 422 3509 836 4129 
Q 1250 4750 2034 4750 
z
" transform="scale(0.015625)"/>
       </defs>
       <use xlink:href="#DejaVuSans-30"/>
      </g>
     </g>
    </g>
    <g id="xtick_2">
     <g id="line2d_3">
      <path d="M 156.012426 238.277813 
L 156.012426 29.837813 
" clip-path="url(#pa4a9a2a760)" style="fill: none; stroke: #dfe3e8; stroke-opacity: 0.8; stroke-linecap: square"/>
     </g>
     <g id="line2d_4">
      <g>
       <use xlink:href="#m069a336504" x="156.012426" y="238.277813" style="stroke: #000000; stroke-width: 0.8"/>
      </g>
     </g>
     <g id="text_2">
      <!-- 1 -->
      <g transform="translate(152.831176 252.87625) scale(0.1 -0.1)">
       <defs>
        <path id="DejaVuSans-31" d="M 794 531 
L 1825 531 
L 1825 4091 
L 703 3866 
L 703 4441 
L 1819 4666 
L 2450 4666 
L 2450 531 
L 3481 531 
L 3481 0 
L 794 0 
L 794 531 
z
" transform="scale(0.015625)"/>
       </defs>
       <use xlink:href="#DejaVuSans-31"/>
      </g>
     </g>
    </g>
    <g id="xtick_3">
     <g id="line2d_5">
      <path d="M 210.845164 238.277813 
L 210.845164 29.837813 
" clip-path="url(#pa4a9a2a760)" style="fill: none; stroke: #dfe3e8; stroke-opacity: 0.8; stroke-linecap: square"/>
     </g>
     <g id="line2d_6">
      <g>
       <use xlink:href="#m069a336504" x="210.845164" y="238.277813" style="stroke: #000000; stroke-width: 0.8"/>
      </g>
     </g>
     <g id="text_3">
      <!-- 2 -->
      <g transform="translate(207.663914 252.87625) scale(0.1 -0.1)">
       <defs>
        <path id="DejaVuSans-32" d="M 1228 531 
L 3431 531 
L 3431 0 
L 469 0 
L 469 531 
Q 828 903 1448 1529 
Q 2069 2156 2228 2338 
Q 2531 2678 2651 2914 
Q 2772 3150 2772 3378 
Q 2772 3750 2511 3984 
Q 2250 4219 1831 4219 
Q 1534 4219 1204 4116 
Q 875 4013 500 3803 
L 500 4441 
Q 881 4594 1212 4672 
Q 1544 4750 1819 4750 
Q 2544 4750 2975 4387 
Q 3406 4025 3406 3419 
Q 3406 3131 3298 2873 
Q 3191 2616 2906 2266 
Q 2828 2175 2409 1742 
Q 1991 1309 1228 531 
z
" transform="scale(0.015625)"/>
       </defs>
       <use xlink:href="#DejaVuSans-32"/>
      </g>
     </g>
    </g>
    <g id="xtick_4">
     <g id="line2d_7">
      <path d="M 265.677902 238.277813 
L 265.677902 29.837813 
" clip-path="url(#pa4a9a2a760)" style="fill: none; stroke: #dfe3e8; stroke-opacity: 0.8; stroke-linecap: square"/>
     </g>
     <g id="line2d_8">
      <g>
       <use xlink:href="#m069a336504" x="265.677902" y="238.277813" style="stroke: #000000; stroke-width: 0.8"/>
      </g>
     </g>
     <g id="text_4">
      <!-- 3 -->
      <g transform="translate(262.496652 252.87625) scale(0.1 -0.1)">
       <defs>
        <path id="DejaVuSans-33" d="M 2597 2516 
Q 3050 2419 3304 2112 
Q 3559 1806 3559 1356 
Q 3559 666 3084 287 
Q 2609 -91 1734 -91 
Q 1441 -91 1130 -33 
Q 819 25 488 141 
L 488 750 
Q 750 597 1062 519 
Q 1375 441 1716 441 
Q 2309 441 2620 675 
Q 2931 909 2931 1356 
Q 2931 1769 2642 2001 
Q 2353 2234 1838 2234 
L 1294 2234 
L 1294 2753 
L 1863 2753 
Q 2328 2753 2575 2939 
Q 2822 3125 2822 3475 
Q 2822 3834 2567 4026 
Q 2313 4219 1838 4219 
Q 1578 4219 1281 4162 
Q 984 4106 628 3988 
L 628 4550 
Q 988 4650 1302 4700 
Q 1616 4750 1894 4750 
Q 2613 4750 3031 4423 
Q 3450 4097 3450 3541 
Q 3450 3153 3228 2886 
Q 3006 2619 2597 2516 
z
" transform="scale(0.015625)"/>
       </defs>
       <use xlink:href="#DejaVuSans-33"/>
      </g>
     </g>
    </g>
    <g id="xtick_5">
     <g id="line2d_9">
      <path d="M 320.51064 238.277813 
L 320.51064 29.837813 
" clip-path="url(#pa4a9a2a760)" style="fill: none; stroke: #dfe3e8; stroke-opacity: 0.8; stroke-linecap: square"/>
     </g>
     <g id="line2d_10">
      <g>
       <use xlink:href="#m069a336504" x="320.51064" y="238.277813" style="stroke: #000000; stroke-width: 0.8"/>
      </g>
     </g>
     <g id="text_5">
      <!-- 4 -->
      <g transform="translate(317.32939 252.87625) scale(0.1 -0.1)">
       <defs>
        <path id="DejaVuSans-34" d="M 2419 4116 
L 825 1625 
L 2419 1625 
L 2419 4116 
z
M 2253 4666 
L 3047 4666 
L 3047 1625 
L 3713 1625 
L 3713 1100 
L 3047 1100 
L 3047 0 
L 2419 0 
L 2419 1100 
L 313 1100 
L 313 1709 
L 2253 4666 
z
" transform="scale(0.015625)"/>
       </defs>
       <use xlink:href="#DejaVuSans-34"/>
      </g>
     </g>
    </g>
    <g id="xtick_6">
     <g id="line2d_11">
      <path d="M 375.343378 238.277813 
L 375.343378 29.837813 
" clip-path="url(#pa4a9a2a760)" style="fill: none; stroke: #dfe3e8; stroke-opacity: 0.8; stroke-linecap: square"/>
     </g>
     <g id="line2d_12">
      <g>
       <use xlink:href="#m069a336504" x="375.343378" y="238.277813" style="stroke: #000000; stroke-width: 0.8"/>
      </g>
     </g>
     <g id="text_6">
      <!-- 5 -->
      <g transform="translate(372.162128 252.87625) scale(0.1 -0.1)">
       <defs>
        <path id="DejaVuSans-35" d="M 691 4666 
L 3169 4666 
L 3169 4134 
L 1269 4134 
L 1269 2991 
Q 1406 3038 1543 3061 
Q 1681 3084 1819 3084 
Q 2600 3084 3056 2656 
Q 3513 2228 3513 1497 
Q 3513 744 3044 326 
Q 2575 -91 1722 -91 
Q 1428 -91 1123 -41 
Q 819 9 494 109 
L 494 744 
Q 775 591 1075 516 
Q 1375 441 1709 441 
Q 2250 441 2565 725 
Q 2881 1009 2881 1497 
Q 2881 1984 2565 2268 
Q 2250 2553 1709 2553 
Q 1456 2553 1204 2497 
Q 953 2441 691 2322 
L 691 4666 
z
" transform="scale(0.015625)"/>
       </defs>
       <use xlink:href="#DejaVuSans-35"/>
      </g>
     </g>
    </g>
    <g id="xtick_7">
     <g id="line2d_13">
      <path d="M 430.176116 238.277813 
L 430.176116 29.837813 
" clip-path="url(#pa4a9a2a760)" style="fill: none; stroke: #dfe3e8; stroke-opacity: 0.8; stroke-linecap: square"/>
     </g>
     <g id="line2d_14">
      <g>
       <use xlink:href="#m069a336504" x="430.176116" y="238.277813" style="stroke: #000000; stroke-width: 0.8"/>
      </g>
     </g>
     <g id="text_7">
      <!-- 6 -->
      <g transform="translate(426.994866 252.87625) scale(0.1 -0.1)">
       <defs>
        <path id="DejaVuSans-36" d="M 2113 2584 
Q 1688 2584 1439 2293 
Q 1191 2003 1191 1497 
Q 1191 994 1439 701 
Q 1688 409 2113 409 
Q 2538 409 2786 701 
Q 3034 994 3034 1497 
Q 3034 2003 2786 2293 
Q 2538 2584 2113 2584 
z
M 3366 4563 
L 3366 3988 
Q 3128 4100 2886 4159 
Q 2644 4219 2406 4219 
Q 1781 4219 1451 3797 
Q 1122 3375 1075 2522 
Q 1259 2794 1537 2939 
Q 1816 3084 2150 3084 
Q 2853 3084 3261 2657 
Q 3669 2231 3669 1497 
Q 3669 778 3244 343 
Q 2819 -91 2113 -91 
Q 1303 -91 875 529 
Q 447 1150 447 2328 
Q 447 3434 972 4092 
Q 1497 4750 2381 4750 
Q 2619 4750 2861 4703 
Q 3103 4656 3366 4563 
z
" transform="scale(0.015625)"/>
       </defs>
       <use xlink:href="#DejaVuSans-36"/>
      </g>
     </g>
    </g>
    <g id="xtick_8">
     <g id="line2d_15">
      <path d="M 485.008854 238.277813 
L 485.008854 29.837813 
" clip-path="url(#pa4a9a2a760)" style="fill: none; stroke: #dfe3e8; stroke-opacity: 0.8; stroke-linecap: square"/>
     </g>
     <g id="line2d_16">
      <g>
       <use xlink:href="#m069a336504" x="485.008854" y="238.277813" style="stroke: #000000; stroke-width: 0.8"/>
      </g>
     </g>
     <g id="text_8">
      <!-- 7 -->
      <g transform="translate(481.827604 252.87625) scale(0.1 -0.1)">
       <defs>
        <path id="DejaVuSans-37" d="M 525 4666 
L 3525 4666 
L 3525 4397 
L 1831 0 
L 1172 0 
L 2766 4134 
L 525 4134 
L 525 4666 
z
" transform="scale(0.015625)"/>
       </defs>
       <use xlink:href="#DejaVuSans-37"/>
      </g>
     </g>
    </g>
    <g id="xtick_9">
     <g id="line2d_17">
      <path d="M 539.841592 238.277813 
L 539.841592 29.837813 
" clip-path="url(#pa4a9a2a760)" style="fill: none; stroke: #dfe3e8; stroke-opacity: 0.8; stroke-linecap: square"/>
     </g>
     <g id="line2d_18">
      <g>
       <use xlink:href="#m069a336504" x="539.841592" y="238.277813" style="stroke: #000000; stroke-width: 0.8"/>
      </g>
     </g>
     <g id="text_9">
      <!-- 8 -->
      <g transform="translate(536.660342 252.87625) scale(0.1 -0.1)">
       <defs>
        <path id="DejaVuSans-38" d="M 2034 2216 
Q 1584 2216 1326 1975 
Q 1069 1734 1069 1313 
Q 1069 891 1326 650 
Q 1584 409 2034 409 
Q 2484 409 2743 651 
Q 3003 894 3003 1313 
Q 3003 1734 2745 1975 
Q 2488 2216 2034 2216 
z
M 1403 2484 
Q 997 2584 770 2862 
Q 544 3141 544 3541 
Q 544 4100 942 4425 
Q 1341 4750 2034 4750 
Q 2731 4750 3128 4425 
Q 3525 4100 3525 3541 
Q 3525 3141 3298 2862 
Q 3072 2584 2669 2484 
Q 3125 2378 3379 2068 
Q 3634 1759 3634 1313 
Q 3634 634 3220 271 
Q 2806 -91 2034 -91 
Q 1263 -91 848 271 
Q 434 634 434 1313 
Q 434 1759 690 2068 
Q 947 2378 1403 2484 
z
M 1172 3481 
Q 1172 3119 1398 2916 
Q 1625 2713 2034 2713 
Q 2441 2713 2670 2916 
Q 2900 3119 2900 3481 
Q 2900 3844 2670 4047 
Q 2441 4250 2034 4250 
Q 1625 4250 1398 4047 
Q 1172 3844 1172 3481 
z
" transform="scale(0.015625)"/>
       </defs>
       <use xlink:href="#DejaVuSans-38"/>
      </g>
     </g>
    </g>
    <g id="text_10">
     <!-- Count -->
     <g transform="translate(316.62875 270.554375) scale(0.1 -0.1)">
      <defs>
       <path id="DejaVuSans-43" d="M 4122 4306 
L 4122 3641 
Q 3803 3938 3442 4084 
Q 3081 4231 2675 4231 
Q 1875 4231 1450 3742 
Q 1025 3253 1025 2328 
Q 1025 1406 1450 917 
Q 1875 428 2675 428 
Q 3081 428 3442 575 
Q 3803 722 4122 1019 
L 4122 359 
Q 3791 134 3420 21 
Q 3050 -91 2638 -91 
Q 1578 -91 968 557 
Q 359 1206 359 2328 
Q 359 3453 968 4101 
Q 1578 4750 2638 4750 
Q 3056 4750 3426 4639 
Q 3797 4528 4122 4306 
z
" transform="scale(0.015625)"/>
       <path id="DejaVuSans-6f" d="M 1959 3097 
Q 1497 3097 1228 2736 
Q 959 2375 959 1747 
Q 959 1119 1226 758 
Q 1494 397 1959 397 
Q 2419 397 2687 759 
Q 2956 1122 2956 1747 
Q 2956 2369 2687 2733 
Q 2419 3097 1959 3097 
z
M 1959 3584 
Q 2709 3584 3137 3096 
Q 3566 2609 3566 1747 
Q 3566 888 3137 398 
Q 2709 -91 1959 -91 
Q 1206 -91 779 398 
Q 353 888 353 1747 
Q 353 2609 779 3096 
Q 1206 3584 1959 3584 
z
" transform="scale(0.015625)"/>
       <path id="DejaVuSans-75" d="M 544 1381 
L 544 3500 
L 1119 3500 
L 1119 1403 
Q 1119 906 1312 657 
Q 1506 409 1894 409 
Q 2359 409 2629 706 
Q 2900 1003 2900 1516 
L 2900 3500 
L 3475 3500 
L 3475 0 
L 2900 0 
L 2900 538 
Q 2691 219 2414 64 
Q 2138 -91 1772 -91 
Q 1169 -91 856 284 
Q 544 659 544 1381 
z
M 1991 3584 
L 1991 3584 
z
" transform="scale(0.015625)"/>
       <path id="DejaVuSans-6e" d="M 3513 2113 
L 3513 0 
L 2938 0 
L 2938 2094 
Q 2938 2591 2744 2837 
Q 2550 3084 2163 3084 
Q 1697 3084 1428 2787 
Q 1159 2491 1159 1978 
L 1159 0 
L 581 0 
L 581 3500 
L 1159 3500 
L 1159 2956 
Q 1366 3272 1645 3428 
Q 1925 3584 2291 3584 
Q 2894 3584 3203 3211 
Q 3513 2838 3513 2113 
z
" transform="scale(0.015625)"/>
       <path id="DejaVuSans-74" d="M 1172 4494 
L 1172 3500 
L 2356 3500 
L 2356 3053 
L 1172 3053 
L 1172 1153 
Q 1172 725 1289 603 
Q 1406 481 1766 481 
L 2356 481 
L 2356 0 
L 1766 0 
Q 1100 0 847 248 
Q 594 497 594 1153 
L 594 3053 
L 172 3053 
L 172 3500 
L 594 3500 
L 594 4494 
L 1172 4494 
z
" transform="scale(0.015625)"/>
      </defs>
      <use xlink:href="#DejaVuSans-43"/>
      <use xlink:href="#DejaVuSans-6f" transform="translate(69.824219 0)"/>
      <use xlink:href="#DejaVuSans-75" transform="translate(131.005859 0)"/>
      <use xlink:href="#DejaVuSans-6e" transform="translate(194.384766 0)"/>
      <use xlink:href="#DejaVuSans-74" transform="translate(257.763672 0)"/>
     </g>
    </g>
   </g>
   <g id="matplotlib.axis_2">
    <g id="ytick_1">
     <g id="line2d_19">
      <defs>
       <path id="ma81395bde1" d="M 0 0 
L -3.5 0 
" style="stroke: #000000; stroke-width: 0.8"/>
      </defs>
      <g>
       <use xlink:href="#ma81395bde1" x="101.179688" y="49.463657" style="stroke: #000000; stroke-width: 0.8"/>
      </g>
     </g>
     <g id="text_11">
      <!-- LLM -->
      <g transform="translate(74.407813 53.262875) scale(0.1 -0.1)">
       <defs>
        <path id="DejaVuSans-4c" d="M 628 4666 
L 1259 4666 
L 1259 531 
L 3531 531 
L 3531 0 
L 628 0 
L 628 4666 
z
" transform="scale(0.015625)"/>
        <path id="DejaVuSans-4d" d="M 628 4666 
L 1569 4666 
L 2759 1491 
L 3956 4666 
L 4897 4666 
L 4897 0 
L 4281 0 
L 4281 4097 
L 3078 897 
L 2444 897 
L 1241 4097 
L 1241 0 
L 628 0 
L 628 4666 
z
" transform="scale(0.015625)"/>
       </defs>
       <use xlink:href="#DejaVuSans-4c"/>
       <use xlink:href="#DejaVuSans-4c" transform="translate(55.712891 0)"/>
       <use xlink:href="#DejaVuSans-4d" transform="translate(111.425781 0)"/>
      </g>
     </g>
    </g>
    <g id="ytick_2">
     <g id="line2d_20">
      <g>
       <use xlink:href="#ma81395bde1" x="101.179688" y="83.301319" style="stroke: #000000; stroke-width: 0.8"/>
      </g>
     </g>
     <g id="text_12">
      <!-- TTS -->
      <g transform="translate(75.790625 87.100538) scale(0.1 -0.1)">
       <defs>
        <path id="DejaVuSans-54" d="M -19 4666 
L 3928 4666 
L 3928 4134 
L 2272 4134 
L 2272 0 
L 1638 0 
L 1638 4134 
L -19 4134 
L -19 4666 
z
" transform="scale(0.015625)"/>
        <path id="DejaVuSans-53" d="M 3425 4513 
L 3425 3897 
Q 3066 4069 2747 4153 
Q 2428 4238 2131 4238 
Q 1616 4238 1336 4038 
Q 1056 3838 1056 3469 
Q 1056 3159 1242 3001 
Q 1428 2844 1947 2747 
L 2328 2669 
Q 3034 2534 3370 2195 
Q 3706 1856 3706 1288 
Q 3706 609 3251 259 
Q 2797 -91 1919 -91 
Q 1588 -91 1214 -16 
Q 841 59 441 206 
L 441 856 
Q 825 641 1194 531 
Q 1563 422 1919 422 
Q 2459 422 2753 634 
Q 3047 847 3047 1241 
Q 3047 1584 2836 1778 
Q 2625 1972 2144 2069 
L 1759 2144 
Q 1053 2284 737 2584 
Q 422 2884 422 3419 
Q 422 4038 858 4394 
Q 1294 4750 2059 4750 
Q 2388 4750 2728 4690 
Q 3069 4631 3425 4513 
z
" transform="scale(0.015625)"/>
       </defs>
       <use xlink:href="#DejaVuSans-54"/>
       <use xlink:href="#DejaVuSans-54" transform="translate(59.333984 0)"/>
       <use xlink:href="#DejaVuSans-53" transform="translate(120.417969 0)"/>
      </g>
     </g>
    </g>
    <g id="ytick_3">
     <g id="line2d_21">
      <g>
       <use xlink:href="#ma81395bde1" x="101.179688" y="117.138981" style="stroke: #000000; stroke-width: 0.8"/>
      </g>
     </g>
     <g id="text_13">
      <!-- Multimodal (T/S) -->
      <g transform="translate(11.817188 120.9382) scale(0.1 -0.1)">
       <defs>
        <path id="DejaVuSans-6c" d="M 603 4863 
L 1178 4863 
L 1178 0 
L 603 0 
L 603 4863 
z
" transform="scale(0.015625)"/>
        <path id="DejaVuSans-69" d="M 603 3500 
L 1178 3500 
L 1178 0 
L 603 0 
L 603 3500 
z
M 603 4863 
L 1178 4863 
L 1178 4134 
L 603 4134 
L 603 4863 
z
" transform="scale(0.015625)"/>
        <path id="DejaVuSans-6d" d="M 3328 2828 
Q 3544 3216 3844 3400 
Q 4144 3584 4550 3584 
Q 5097 3584 5394 3201 
Q 5691 2819 5691 2113 
L 5691 0 
L 5113 0 
L 5113 2094 
Q 5113 2597 4934 2840 
Q 4756 3084 4391 3084 
Q 3944 3084 3684 2787 
Q 3425 2491 3425 1978 
L 3425 0 
L 2847 0 
L 2847 2094 
Q 2847 2600 2669 2842 
Q 2491 3084 2119 3084 
Q 1678 3084 1418 2786 
Q 1159 2488 1159 1978 
L 1159 0 
L 581 0 
L 581 3500 
L 1159 3500 
L 1159 2956 
Q 1356 3278 1631 3431 
Q 1906 3584 2284 3584 
Q 2666 3584 2933 3390 
Q 3200 3197 3328 2828 
z
" transform="scale(0.015625)"/>
        <path id="DejaVuSans-64" d="M 2906 2969 
L 2906 4863 
L 3481 4863 
L 3481 0 
L 2906 0 
L 2906 525 
Q 2725 213 2448 61 
Q 2172 -91 1784 -91 
Q 1150 -91 751 415 
Q 353 922 353 1747 
Q 353 2572 751 3078 
Q 1150 3584 1784 3584 
Q 2172 3584 2448 3432 
Q 2725 3281 2906 2969 
z
M 947 1747 
Q 947 1113 1208 752 
Q 1469 391 1925 391 
Q 2381 391 2643 752 
Q 2906 1113 2906 1747 
Q 2906 2381 2643 2742 
Q 2381 3103 1925 3103 
Q 1469 3103 1208 2742 
Q 947 2381 947 1747 
z
" transform="scale(0.015625)"/>
        <path id="DejaVuSans-61" d="M 2194 1759 
Q 1497 1759 1228 1600 
Q 959 1441 959 1056 
Q 959 750 1161 570 
Q 1363 391 1709 391 
Q 2188 391 2477 730 
Q 2766 1069 2766 1631 
L 2766 1759 
L 2194 1759 
z
M 3341 1997 
L 3341 0 
L 2766 0 
L 2766 531 
Q 2569 213 2275 61 
Q 1981 -91 1556 -91 
Q 1019 -91 701 211 
Q 384 513 384 1019 
Q 384 1609 779 1909 
Q 1175 2209 1959 2209 
L 2766 2209 
L 2766 2266 
Q 2766 2663 2505 2880 
Q 2244 3097 1772 3097 
Q 1472 3097 1187 3025 
Q 903 2953 641 2809 
L 641 3341 
Q 956 3463 1253 3523 
Q 1550 3584 1831 3584 
Q 2591 3584 2966 3190 
Q 3341 2797 3341 1997 
z
" transform="scale(0.015625)"/>
        <path id="DejaVuSans-20" transform="scale(0.015625)"/>
        <path id="DejaVuSans-28" d="M 1984 4856 
Q 1566 4138 1362 3434 
Q 1159 2731 1159 2009 
Q 1159 1288 1364 580 
Q 1569 -128 1984 -844 
L 1484 -844 
Q 1016 -109 783 600 
Q 550 1309 550 2009 
Q 550 2706 781 3412 
Q 1013 4119 1484 4856 
L 1984 4856 
z
" transform="scale(0.015625)"/>
        <path id="DejaVuSans-2f" d="M 1625 4666 
L 2156 4666 
L 531 -594 
L 0 -594 
L 1625 4666 
z
" transform="scale(0.015625)"/>
        <path id="DejaVuSans-29" d="M 513 4856 
L 1013 4856 
Q 1481 4119 1714 3412 
Q 1947 2706 1947 2009 
Q 1947 1309 1714 600 
Q 1481 -109 1013 -844 
L 513 -844 
Q 928 -128 1133 580 
Q 1338 1288 1338 2009 
Q 1338 2731 1133 3434 
Q 928 4138 513 4856 
z
" transform="scale(0.015625)"/>
       </defs>
       <use xlink:href="#DejaVuSans-4d"/>
       <use xlink:href="#DejaVuSans-75" transform="translate(86.279297 0)"/>
       <use xlink:href="#DejaVuSans-6c" transform="translate(149.658203 0)"/>
       <use xlink:href="#DejaVuSans-74" transform="translate(177.441406 0)"/>
       <use xlink:href="#DejaVuSans-69" transform="translate(216.650391 0)"/>
       <use xlink:href="#DejaVuSans-6d" transform="translate(244.433594 0)"/>
       <use xlink:href="#DejaVuSans-6f" transform="translate(341.845703 0)"/>
       <use xlink:href="#DejaVuSans-64" transform="translate(403.027344 0)"/>
       <use xlink:href="#DejaVuSans-61" transform="translate(466.503906 0)"/>
       <use xlink:href="#DejaVuSans-6c" transform="translate(527.783203 0)"/>
       <use xlink:href="#DejaVuSans-20" transform="translate(555.566406 0)"/>
       <use xlink:href="#DejaVuSans-28" transform="translate(587.353516 0)"/>
       <use xlink:href="#DejaVuSans-54" transform="translate(626.367188 0)"/>
       <use xlink:href="#DejaVuSans-2f" transform="translate(687.451172 0)"/>
       <use xlink:href="#DejaVuSans-53" transform="translate(721.142578 0)"/>
       <use xlink:href="#DejaVuSans-29" transform="translate(784.619141 0)"/>
      </g>
     </g>
    </g>
    <g id="ytick_4">
     <g id="line2d_22">
      <g>
       <use xlink:href="#ma81395bde1" x="101.179688" y="150.976644" style="stroke: #000000; stroke-width: 0.8"/>
      </g>
     </g>
     <g id="text_14">
      <!-- Dataset (Speech) -->
      <g transform="translate(7.2 154.775862) scale(0.1 -0.1)">
       <defs>
        <path id="DejaVuSans-44" d="M 1259 4147 
L 1259 519 
L 2022 519 
Q 2988 519 3436 956 
Q 3884 1394 3884 2338 
Q 3884 3275 3436 3711 
Q 2988 4147 2022 4147 
L 1259 4147 
z
M 628 4666 
L 1925 4666 
Q 3281 4666 3915 4102 
Q 4550 3538 4550 2338 
Q 4550 1131 3912 565 
Q 3275 0 1925 0 
L 628 0 
L 628 4666 
z
" transform="scale(0.015625)"/>
        <path id="DejaVuSans-73" d="M 2834 3397 
L 2834 2853 
Q 2591 2978 2328 3040 
Q 2066 3103 1784 3103 
Q 1356 3103 1142 2972 
Q 928 2841 928 2578 
Q 928 2378 1081 2264 
Q 1234 2150 1697 2047 
L 1894 2003 
Q 2506 1872 2764 1633 
Q 3022 1394 3022 966 
Q 3022 478 2636 193 
Q 2250 -91 1575 -91 
Q 1294 -91 989 -36 
Q 684 19 347 128 
L 347 722 
Q 666 556 975 473 
Q 1284 391 1588 391 
Q 1994 391 2212 530 
Q 2431 669 2431 922 
Q 2431 1156 2273 1281 
Q 2116 1406 1581 1522 
L 1381 1569 
Q 847 1681 609 1914 
Q 372 2147 372 2553 
Q 372 3047 722 3315 
Q 1072 3584 1716 3584 
Q 2034 3584 2315 3537 
Q 2597 3491 2834 3397 
z
" transform="scale(0.015625)"/>
        <path id="DejaVuSans-65" d="M 3597 1894 
L 3597 1613 
L 953 1613 
Q 991 1019 1311 708 
Q 1631 397 2203 397 
Q 2534 397 2845 478 
Q 3156 559 3463 722 
L 3463 178 
Q 3153 47 2828 -22 
Q 2503 -91 2169 -91 
Q 1331 -91 842 396 
Q 353 884 353 1716 
Q 353 2575 817 3079 
Q 1281 3584 2069 3584 
Q 2775 3584 3186 3129 
Q 3597 2675 3597 1894 
z
M 3022 2063 
Q 3016 2534 2758 2815 
Q 2500 3097 2075 3097 
Q 1594 3097 1305 2825 
Q 1016 2553 972 2059 
L 3022 2063 
z
" transform="scale(0.015625)"/>
        <path id="DejaVuSans-70" d="M 1159 525 
L 1159 -1331 
L 581 -1331 
L 581 3500 
L 1159 3500 
L 1159 2969 
Q 1341 3281 1617 3432 
Q 1894 3584 2278 3584 
Q 2916 3584 3314 3078 
Q 3713 2572 3713 1747 
Q 3713 922 3314 415 
Q 2916 -91 2278 -91 
Q 1894 -91 1617 61 
Q 1341 213 1159 525 
z
M 3116 1747 
Q 3116 2381 2855 2742 
Q 2594 3103 2138 3103 
Q 1681 3103 1420 2742 
Q 1159 2381 1159 1747 
Q 1159 1113 1420 752 
Q 1681 391 2138 391 
Q 2594 391 2855 752 
Q 3116 1113 3116 1747 
z
" transform="scale(0.015625)"/>
        <path id="DejaVuSans-63" d="M 3122 3366 
L 3122 2828 
Q 2878 2963 2633 3030 
Q 2388 3097 2138 3097 
Q 1578 3097 1268 2742 
Q 959 2388 959 1747 
Q 959 1106 1268 751 
Q 1578 397 2138 397 
Q 2388 397 2633 464 
Q 2878 531 3122 666 
L 3122 134 
Q 2881 22 2623 -34 
Q 2366 -91 2075 -91 
Q 1284 -91 818 406 
Q 353 903 353 1747 
Q 353 2603 823 3093 
Q 1294 3584 2113 3584 
Q 2378 3584 2631 3529 
Q 2884 3475 3122 3366 
z
" transform="scale(0.015625)"/>
        <path id="DejaVuSans-68" d="M 3513 2113 
L 3513 0 
L 2938 0 
L 2938 2094 
Q 2938 2591 2744 2837 
Q 2550 3084 2163 3084 
Q 1697 3084 1428 2787 
Q 1159 2491 1159 1978 
L 1159 0 
L 581 0 
L 581 4863 
L 1159 4863 
L 1159 2956 
Q 1366 3272 1645 3428 
Q 1925 3584 2291 3584 
Q 2894 3584 3203 3211 
Q 3513 2838 3513 2113 
z
" transform="scale(0.015625)"/>
       </defs>
       <use xlink:href="#DejaVuSans-44"/>
       <use xlink:href="#DejaVuSans-61" transform="translate(77.001953 0)"/>
       <use xlink:href="#DejaVuSans-74" transform="translate(138.28125 0)"/>
       <use xlink:href="#DejaVuSans-61" transform="translate(177.490234 0)"/>
       <use xlink:href="#DejaVuSans-73" transform="translate(238.769531 0)"/>
       <use xlink:href="#DejaVuSans-65" transform="translate(290.869141 0)"/>
       <use xlink:href="#DejaVuSans-74" transform="translate(352.392578 0)"/>
       <use xlink:href="#DejaVuSans-20" transform="translate(391.601562 0)"/>
       <use xlink:href="#DejaVuSans-28" transform="translate(423.388672 0)"/>
       <use xlink:href="#DejaVuSans-53" transform="translate(462.402344 0)"/>
       <use xlink:href="#DejaVuSans-70" transform="translate(525.878906 0)"/>
       <use xlink:href="#DejaVuSans-65" transform="translate(589.355469 0)"/>
       <use xlink:href="#DejaVuSans-65" transform="translate(650.878906 0)"/>
       <use xlink:href="#DejaVuSans-63" transform="translate(712.402344 0)"/>
       <use xlink:href="#DejaVuSans-68" transform="translate(767.382812 0)"/>
       <use xlink:href="#DejaVuSans-29" transform="translate(830.761719 0)"/>
      </g>
     </g>
    </g>
    <g id="ytick_5">
     <g id="line2d_23">
      <g>
       <use xlink:href="#ma81395bde1" x="101.179688" y="184.814306" style="stroke: #000000; stroke-width: 0.8"/>
      </g>
     </g>
     <g id="text_15">
      <!-- Speech -->
      <g transform="translate(57.340625 188.613525) scale(0.1 -0.1)">
       <use xlink:href="#DejaVuSans-53"/>
       <use xlink:href="#DejaVuSans-70" transform="translate(63.476562 0)"/>
       <use xlink:href="#DejaVuSans-65" transform="translate(126.953125 0)"/>
       <use xlink:href="#DejaVuSans-65" transform="translate(188.476562 0)"/>
       <use xlink:href="#DejaVuSans-63" transform="translate(250 0)"/>
       <use xlink:href="#DejaVuSans-68" transform="translate(304.980469 0)"/>
      </g>
     </g>
    </g>
    <g id="ytick_6">
     <g id="line2d_24">
      <g>
       <use xlink:href="#ma81395bde1" x="101.179688" y="218.651968" style="stroke: #000000; stroke-width: 0.8"/>
      </g>
     </g>
     <g id="text_16">
      <!-- THG -->
      <g transform="translate(72.803125 222.451187) scale(0.1 -0.1)">
       <defs>
        <path id="DejaVuSans-48" d="M 628 4666 
L 1259 4666 
L 1259 2753 
L 3553 2753 
L 3553 4666 
L 4184 4666 
L 4184 0 
L 3553 0 
L 3553 2222 
L 1259 2222 
L 1259 0 
L 628 0 
L 628 4666 
z
" transform="scale(0.015625)"/>
        <path id="DejaVuSans-47" d="M 3809 666 
L 3809 1919 
L 2778 1919 
L 2778 2438 
L 4434 2438 
L 4434 434 
Q 4069 175 3628 42 
Q 3188 -91 2688 -91 
Q 1594 -91 976 548 
Q 359 1188 359 2328 
Q 359 3472 976 4111 
Q 1594 4750 2688 4750 
Q 3144 4750 3555 4637 
Q 3966 4525 4313 4306 
L 4313 3634 
Q 3963 3931 3569 4081 
Q 3175 4231 2741 4231 
Q 1884 4231 1454 3753 
Q 1025 3275 1025 2328 
Q 1025 1384 1454 906 
Q 1884 428 2741 428 
Q 3075 428 3337 486 
Q 3600 544 3809 666 
z
" transform="scale(0.015625)"/>
       </defs>
       <use xlink:href="#DejaVuSans-54"/>
       <use xlink:href="#DejaVuSans-48" transform="translate(61.083984 0)"/>
       <use xlink:href="#DejaVuSans-47" transform="translate(136.279297 0)"/>
      </g>
     </g>
    </g>
   </g>
   <g id="patch_3">
    <path d="M 101.179688 39.312358 
L 539.841592 39.312358 
L 539.841592 59.614955 
L 101.179688 59.614955 
z
" clip-path="url(#pa4a9a2a760)" style="fill: #4c78a8; opacity: 0.9; stroke: #ffffff; stroke-width: 3; stroke-linejoin: miter"/>
    <path d="M 101.179688 39.312358 
L 539.841592 39.312358 
L 539.841592 59.614955 
L 101.179688 59.614955 
z
" clip-path="url(#pa4a9a2a760)" style="fill: #4c78a8"/>
   </g>
   <g id="patch_4">
    <path d="M 101.179688 73.15002 
L 320.51064 73.15002 
L 320.51064 93.452618 
L 101.179688 93.452618 
z
" clip-path="url(#pa4a9a2a760)" style="fill: #4c78a8; opacity: 0.9; stroke: #ffffff; stroke-width: 3; stroke-linejoin: miter"/>
    <path d="M 101.179688 73.15002 
L 320.51064 73.15002 
L 320.51064 93.452618 
L 101.179688 93.452618 
z
" clip-path="url(#pa4a9a2a760)" style="fill: #4c78a8"/>
   </g>
   <g id="patch_5">
    <path d="M 101.179688 106.987683 
L 265.677902 106.987683 
L 265.677902 127.29028 
L 101.179688 127.29028 
z
" clip-path="url(#pa4a9a2a760)" style="fill: #4c78a8; opacity: 0.9; stroke: #ffffff; stroke-width: 3; stroke-linejoin: miter"/>
    <path d="M 101.179688 106.987683 
L 265.677902 106.987683 
L 265.677902 127.29028 
L 101.179688 127.29028 
z
" clip-path="url(#pa4a9a2a760)" style="fill: #4c78a8"/>
   </g>
   <g id="patch_6">
    <path d="M 101.179688 140.825345 
L 156.012426 140.825345 
L 156.012426 161.127942 
L 101.179688 161.127942 
z
" clip-path="url(#pa4a9a2a760)" style="fill: #4c78a8; opacity: 0.9; stroke: #ffffff; stroke-width: 3; stroke-linejoin: miter"/>
    <path d="M 101.179688 140.825345 
L 156.012426 140.825345 
L 156.012426 161.127942 
L 101.179688 161.127942 
z
" clip-path="url(#pa4a9a2a760)" style="fill: #4c78a8"/>
   </g>
   <g id="patch_7">
    <path d="M 101.179688 174.663007 
L 156.012426 174.663007 
L 156.012426 194.965605 
L 101.179688 194.965605 
z
" clip-path="url(#pa4a9a2a760)" style="fill: #4c78a8; opacity: 0.9; stroke: #ffffff; stroke-width: 3; stroke-linejoin: miter"/>
    <path d="M 101.179688 174.663007 
L 156.012426 174.663007 
L 156.012426 194.965605 
L 101.179688 194.965605 
z
" clip-path="url(#pa4a9a2a760)" style="fill: #4c78a8"/>
   </g>
   <g id="patch_8">
    <path d="M 101.179688 208.50067 
L 156.012426 208.50067 
L 156.012426 228.803267 
L 101.179688 228.803267 
z
" clip-path="url(#pa4a9a2a760)" style="fill: #4c78a8; opacity: 0.9; stroke: #ffffff; stroke-width: 3; stroke-linejoin: miter"/>
    <path d="M 101.179688 208.50067 
L 156.012426 208.50067 
L 156.012426 228.803267 
L 101.179688 228.803267 
z
" clip-path="url(#pa4a9a2a760)" style="fill: #4c78a8"/>
   </g>
   <g id="patch_9">
    <path d="M 101.179688 238.277813 
L 101.179688 29.837813 
" style="fill: none; stroke: #000000; stroke-width: 0.8; stroke-linejoin: miter; stroke-linecap: square"/>
   </g>
   <g id="patch_10">
    <path d="M 561.774687 238.277813 
L 561.774687 29.837813 
" style="fill: none; stroke: #000000; stroke-width: 0.8; stroke-linejoin: miter; stroke-linecap: square"/>
   </g>
   <g id="patch_11">
    <path d="M 101.179688 238.277813 
L 561.774687 238.277813 
" style="fill: none; stroke: #000000; stroke-width: 0.8; stroke-linejoin: miter; stroke-linecap: square"/>
   </g>
   <g id="patch_12">
    <path d="M 101.179688 29.837813 
L 561.774687 29.837813 
" style="fill: none; stroke: #000000; stroke-width: 0.8; stroke-linejoin: miter; stroke-linecap: square"/>
   </g>
   <g id="text_17">
    <path d="M 552.110768 48.690219 
Q 551.33733 48.690219 550.893893 49.104438 
Q 550.452174 49.518657 550.452174 50.24225 
Q 550.452174 50.967563 550.893893 51.381782 
Q 551.33733 51.796 552.110768 51.796 
Q 552.884205 51.796 553.329362 51.380063 
Q 553.776237 50.962407 553.776237 50.24225 
Q 553.776237 49.518657 553.332799 49.104438 
Q 552.89108 48.690219 552.110768 48.690219 
z
M 551.026237 48.229594 
Q 550.328424 48.057719 549.938268 47.579907 
Q 549.54983 47.100375 549.54983 46.412875 
Q 549.54983 45.452094 550.233893 44.8935 
Q 550.919674 44.334907 552.110768 44.334907 
Q 553.308737 44.334907 553.99108 44.8935 
Q 554.673424 45.452094 554.673424 46.412875 
Q 554.673424 47.100375 554.283268 47.579907 
Q 553.89483 48.057719 553.202174 48.229594 
Q 553.985924 48.411782 554.422487 48.944594 
Q 554.860768 49.475688 554.860768 50.24225 
Q 554.860768 51.409282 554.149205 52.033188 
Q 553.437643 52.655375 552.110768 52.655375 
Q 550.785612 52.655375 550.07233 52.033188 
Q 549.360768 51.409282 549.360768 50.24225 
Q 549.360768 49.475688 549.800768 48.944594 
Q 550.242487 48.411782 551.026237 48.229594 
z
M 550.629205 46.516 
Q 550.629205 47.138188 551.017643 47.487094 
Q 551.407799 47.836 552.110768 47.836 
Q 552.810299 47.836 553.203893 47.487094 
Q 553.599205 47.138188 553.599205 46.516 
Q 553.599205 45.892094 553.203893 45.543188 
Q 552.810299 45.194282 552.110768 45.194282 
Q 551.407799 45.194282 551.017643 45.543188 
Q 550.629205 45.892094 550.629205 46.516 
z
" style="fill: #2f3b52; opacity: 0.85; stroke: #ffffff; stroke-width: 3"/>
    <path d="M 552.110768 48.690219 
Q 551.33733 48.690219 550.893893 49.104438 
Q 550.452174 49.518657 550.452174 50.24225 
Q 550.452174 50.967563 550.893893 51.381782 
Q 551.33733 51.796 552.110768 51.796 
Q 552.884205 51.796 553.329362 51.380063 
Q 553.776237 50.962407 553.776237 50.24225 
Q 553.776237 49.518657 553.332799 49.104438 
Q 552.89108 48.690219 552.110768 48.690219 
z
M 551.026237 48.229594 
Q 550.328424 48.057719 549.938268 47.579907 
Q 549.54983 47.100375 549.54983 46.412875 
Q 549.54983 45.452094 550.233893 44.8935 
Q 550.919674 44.334907 552.110768 44.334907 
Q 553.308737 44.334907 553.99108 44.8935 
Q 554.673424 45.452094 554.673424 46.412875 
Q 554.673424 47.100375 554.283268 47.579907 
Q 553.89483 48.057719 553.202174 48.229594 
Q 553.985924 48.411782 554.422487 48.944594 
Q 554.860768 49.475688 554.860768 50.24225 
Q 554.860768 51.409282 554.149205 52.033188 
Q 553.437643 52.655375 552.110768 52.655375 
Q 550.785612 52.655375 550.07233 52.033188 
Q 549.360768 51.409282 549.360768 50.24225 
Q 549.360768 49.475688 549.800768 48.944594 
Q 550.242487 48.411782 551.026237 48.229594 
z
M 550.629205 46.516 
Q 550.629205 47.138188 551.017643 47.487094 
Q 551.407799 47.836 552.110768 47.836 
Q 552.810299 47.836 553.203893 47.487094 
Q 553.599205 47.138188 553.599205 46.516 
Q 553.599205 45.892094 553.203893 45.543188 
Q 552.810299 45.194282 552.110768 45.194282 
Q 551.407799 45.194282 551.017643 45.543188 
Q 550.629205 45.892094 550.629205 46.516 
z
" style="fill: #2f3b52"/>
   </g>
   <g id="text_18">
    <path d="M 333.441534 79.262256 
L 330.701847 83.543663 
L 333.441534 83.543663 
L 333.441534 79.262256 
z
M 333.156222 78.316944 
L 334.520909 78.316944 
L 334.520909 83.543663 
L 335.665597 83.543663 
L 335.665597 84.446006 
L 334.520909 84.446006 
L 334.520909 86.336631 
L 333.441534 86.336631 
L 333.441534 84.446006 
L 329.821847 84.446006 
L 329.821847 83.399288 
L 333.156222 78.316944 
z
" style="fill: #2f3b52; opacity: 0.85; stroke: #ffffff; stroke-width: 3"/>
    <path d="M 333.441534 79.262256 
L 330.701847 83.543663 
L 333.441534 83.543663 
L 333.441534 79.262256 
z
M 333.156222 78.316944 
L 334.520909 78.316944 
L 334.520909 83.543663 
L 335.665597 83.543663 
L 335.665597 84.446006 
L 334.520909 84.446006 
L 334.520909 86.336631 
L 333.441534 86.336631 
L 333.441534 84.446006 
L 329.821847 84.446006 
L 329.821847 83.399288 
L 333.156222 78.316944 
z
" style="fill: #2f3b52"/>
   </g>
   <g id="text_19">
    <path d="M 278.914734 115.849919 
Q 279.693327 116.016638 280.12989 116.544294 
Q 280.568171 117.070231 280.568171 117.843669 
Q 280.568171 119.029606 279.751765 119.681013 
Q 278.935359 120.3307 277.431452 120.3307 
Q 276.927859 120.3307 276.393327 120.231013 
Q 275.858796 120.131325 275.28989 119.93195 
L 275.28989 118.885231 
Q 275.740202 119.1482 276.276452 119.282263 
Q 276.814421 119.416325 277.400515 119.416325 
Q 278.419734 119.416325 278.954265 119.014138 
Q 279.488796 118.61195 279.488796 117.843669 
Q 279.488796 117.133825 278.992077 116.735075 
Q 278.495359 116.334606 277.610202 116.334606 
L 276.675202 116.334606 
L 276.675202 115.442575 
L 277.653171 115.442575 
Q 278.45239 115.442575 278.876921 115.122888 
Q 279.301452 114.8032 279.301452 114.201638 
Q 279.301452 113.584606 278.863171 113.254606 
Q 278.426609 112.922888 277.610202 112.922888 
Q 277.163327 112.922888 276.652859 113.020856 
Q 276.14239 113.117106 275.530515 113.319919 
L 275.530515 112.353981 
Q 276.149265 112.182106 276.688952 112.096169 
Q 277.22864 112.010231 277.706452 112.010231 
Q 278.942234 112.010231 279.660671 112.572263 
Q 280.380827 113.132575 280.380827 114.0882 
Q 280.380827 114.755075 279.999265 115.213981 
Q 279.617702 115.672888 278.914734 115.849919 
z
" style="fill: #2f3b52; opacity: 0.85; stroke: #ffffff; stroke-width: 3"/>
    <path d="M 278.914734 115.849919 
Q 279.693327 116.016638 280.12989 116.544294 
Q 280.568171 117.070231 280.568171 117.843669 
Q 280.568171 119.029606 279.751765 119.681013 
Q 278.935359 120.3307 277.431452 120.3307 
Q 276.927859 120.3307 276.393327 120.231013 
Q 275.858796 120.131325 275.28989 119.93195 
L 275.28989 118.885231 
Q 275.740202 119.1482 276.276452 119.282263 
Q 276.814421 119.416325 277.400515 119.416325 
Q 278.419734 119.416325 278.954265 119.014138 
Q 279.488796 118.61195 279.488796 117.843669 
Q 279.488796 117.133825 278.992077 116.735075 
Q 278.495359 116.334606 277.610202 116.334606 
L 276.675202 116.334606 
L 276.675202 115.442575 
L 277.653171 115.442575 
Q 278.45239 115.442575 278.876921 115.122888 
Q 279.301452 114.8032 279.301452 114.201638 
Q 279.301452 113.584606 278.863171 113.254606 
Q 278.426609 112.922888 277.610202 112.922888 
Q 277.163327 112.922888 276.652859 113.020856 
Q 276.14239 113.117106 275.530515 113.319919 
L 275.530515 112.353981 
Q 276.149265 112.182106 276.688952 112.096169 
Q 277.22864 112.010231 277.706452 112.010231 
Q 278.942234 112.010231 279.660671 112.572263 
Q 280.380827 113.132575 280.380827 114.0882 
Q 280.380827 114.755075 279.999265 115.213981 
Q 279.617702 115.672888 278.914734 115.849919 
z
" style="fill: #2f3b52"/>
   </g>
   <g id="text_20">
    <path d="M 166.150351 153.0993 
L 167.922382 153.0993 
L 167.922382 146.98055 
L 165.993945 147.367269 
L 165.993945 146.378987 
L 167.91207 145.992269 
L 168.996601 145.992269 
L 168.996601 153.0993 
L 170.768632 153.0993 
L 170.768632 154.011956 
L 166.150351 154.011956 
L 166.150351 153.0993 
z
" style="fill: #2f3b52; opacity: 0.85; stroke: #ffffff; stroke-width: 3"/>
    <path d="M 166.150351 153.0993 
L 167.922382 153.0993 
L 167.922382 146.98055 
L 165.993945 147.367269 
L 165.993945 146.378987 
L 167.91207 145.992269 
L 168.996601 145.992269 
L 168.996601 153.0993 
L 170.768632 153.0993 
L 170.768632 154.011956 
L 166.150351 154.011956 
L 166.150351 153.0993 
z
" style="fill: #2f3b52"/>
   </g>
   <g id="text_21">
    <path d="M 166.150351 186.936962 
L 167.922382 186.936962 
L 167.922382 180.818212 
L 165.993945 181.204931 
L 165.993945 180.21665 
L 167.91207 179.829931 
L 168.996601 179.829931 
L 168.996601 186.936962 
L 170.768632 186.936962 
L 170.768632 187.849619 
L 166.150351 187.849619 
L 166.150351 186.936962 
z
" style="fill: #2f3b52; opacity: 0.85; stroke: #ffffff; stroke-width: 3"/>
    <path d="M 166.150351 186.936962 
L 167.922382 186.936962 
L 167.922382 180.818212 
L 165.993945 181.204931 
L 165.993945 180.21665 
L 167.91207 179.829931 
L 168.996601 179.829931 
L 168.996601 186.936962 
L 170.768632 186.936962 
L 170.768632 187.849619 
L 166.150351 187.849619 
L 166.150351 186.936962 
z
" style="fill: #2f3b52"/>
   </g>
   <g id="text_22">
    <path d="M 166.150351 220.774625 
L 167.922382 220.774625 
L 167.922382 214.655875 
L 165.993945 215.042593 
L 165.993945 214.054312 
L 167.91207 213.667593 
L 168.996601 213.667593 
L 168.996601 220.774625 
L 170.768632 220.774625 
L 170.768632 221.687281 
L 166.150351 221.687281 
L 166.150351 220.774625 
z
" style="fill: #2f3b52; opacity: 0.85; stroke: #ffffff; stroke-width: 3"/>
    <path d="M 166.150351 220.774625 
L 167.922382 220.774625 
L 167.922382 214.655875 
L 165.993945 215.042593 
L 165.993945 214.054312 
L 167.91207 213.667593 
L 168.996601 213.667593 
L 168.996601 220.774625 
L 170.768632 220.774625 
L 170.768632 221.687281 
L 166.150351 221.687281 
L 166.150351 220.774625 
z
" style="fill: #2f3b52"/>
   </g>
   <g id="text_23">
    <!-- Papers by Category -->
    <g transform="translate(254.192812 17.837813) scale(0.14 -0.14)">
     <defs>
      <path id="DejaVuSans-Bold-50" d="M 588 4666 
L 2584 4666 
Q 3475 4666 3951 4270 
Q 4428 3875 4428 3144 
Q 4428 2409 3951 2014 
Q 3475 1619 2584 1619 
L 1791 1619 
L 1791 0 
L 588 0 
L 588 4666 
z
M 1791 3794 
L 1791 2491 
L 2456 2491 
Q 2806 2491 2997 2661 
Q 3188 2831 3188 3144 
Q 3188 3456 2997 3625 
Q 2806 3794 2456 3794 
L 1791 3794 
z
" transform="scale(0.015625)"/>
      <path id="DejaVuSans-Bold-61" d="M 2106 1575 
Q 1756 1575 1579 1456 
Q 1403 1338 1403 1106 
Q 1403 894 1545 773 
Q 1688 653 1941 653 
Q 2256 653 2472 879 
Q 2688 1106 2688 1447 
L 2688 1575 
L 2106 1575 
z
M 3816 1997 
L 3816 0 
L 2688 0 
L 2688 519 
Q 2463 200 2181 54 
Q 1900 -91 1497 -91 
Q 953 -91 614 226 
Q 275 544 275 1050 
Q 275 1666 698 1953 
Q 1122 2241 2028 2241 
L 2688 2241 
L 2688 2328 
Q 2688 2594 2478 2717 
Q 2269 2841 1825 2841 
Q 1466 2841 1156 2769 
Q 847 2697 581 2553 
L 581 3406 
Q 941 3494 1303 3539 
Q 1666 3584 2028 3584 
Q 2975 3584 3395 3211 
Q 3816 2838 3816 1997 
z
" transform="scale(0.015625)"/>
      <path id="DejaVuSans-Bold-70" d="M 1656 506 
L 1656 -1331 
L 538 -1331 
L 538 3500 
L 1656 3500 
L 1656 2988 
Q 1888 3294 2169 3439 
Q 2450 3584 2816 3584 
Q 3463 3584 3878 3070 
Q 4294 2556 4294 1747 
Q 4294 938 3878 423 
Q 3463 -91 2816 -91 
Q 2450 -91 2169 54 
Q 1888 200 1656 506 
z
M 2400 2772 
Q 2041 2772 1848 2508 
Q 1656 2244 1656 1747 
Q 1656 1250 1848 986 
Q 2041 722 2400 722 
Q 2759 722 2948 984 
Q 3138 1247 3138 1747 
Q 3138 2247 2948 2509 
Q 2759 2772 2400 2772 
z
" transform="scale(0.015625)"/>
      <path id="DejaVuSans-Bold-65" d="M 4031 1759 
L 4031 1441 
L 1416 1441 
Q 1456 1047 1700 850 
Q 1944 653 2381 653 
Q 2734 653 3104 758 
Q 3475 863 3866 1075 
L 3866 213 
Q 3469 63 3072 -14 
Q 2675 -91 2278 -91 
Q 1328 -91 801 392 
Q 275 875 275 1747 
Q 275 2603 792 3093 
Q 1309 3584 2216 3584 
Q 3041 3584 3536 3087 
Q 4031 2591 4031 1759 
z
M 2881 2131 
Q 2881 2450 2695 2645 
Q 2509 2841 2209 2841 
Q 1884 2841 1681 2658 
Q 1478 2475 1428 2131 
L 2881 2131 
z
" transform="scale(0.015625)"/>
      <path id="DejaVuSans-Bold-72" d="M 3138 2547 
Q 2991 2616 2845 2648 
Q 2700 2681 2553 2681 
Q 2122 2681 1889 2404 
Q 1656 2128 1656 1613 
L 1656 0 
L 538 0 
L 538 3500 
L 1656 3500 
L 1656 2925 
Q 1872 3269 2151 3426 
Q 2431 3584 2822 3584 
Q 2878 3584 2943 3579 
Q 3009 3575 3134 3559 
L 3138 2547 
z
" transform="scale(0.015625)"/>
      <path id="DejaVuSans-Bold-73" d="M 3272 3391 
L 3272 2541 
Q 2913 2691 2578 2766 
Q 2244 2841 1947 2841 
Q 1628 2841 1473 2761 
Q 1319 2681 1319 2516 
Q 1319 2381 1436 2309 
Q 1553 2238 1856 2203 
L 2053 2175 
Q 2913 2066 3209 1816 
Q 3506 1566 3506 1031 
Q 3506 472 3093 190 
Q 2681 -91 1863 -91 
Q 1516 -91 1145 -36 
Q 775 19 384 128 
L 384 978 
Q 719 816 1070 734 
Q 1422 653 1784 653 
Q 2113 653 2278 743 
Q 2444 834 2444 1013 
Q 2444 1163 2330 1236 
Q 2216 1309 1875 1350 
L 1678 1375 
Q 931 1469 631 1722 
Q 331 1975 331 2491 
Q 331 3047 712 3315 
Q 1094 3584 1881 3584 
Q 2191 3584 2531 3537 
Q 2872 3491 3272 3391 
z
" transform="scale(0.015625)"/>
      <path id="DejaVuSans-Bold-20" transform="scale(0.015625)"/>
      <path id="DejaVuSans-Bold-62" d="M 2400 722 
Q 2759 722 2948 984 
Q 3138 1247 3138 1747 
Q 3138 2247 2948 2509 
Q 2759 2772 2400 2772 
Q 2041 2772 1848 2508 
Q 1656 2244 1656 1747 
Q 1656 1250 1848 986 
Q 2041 722 2400 722 
z
M 1656 2988 
Q 1888 3294 2169 3439 
Q 2450 3584 2816 3584 
Q 3463 3584 3878 3070 
Q 4294 2556 4294 1747 
Q 4294 938 3878 423 
Q 3463 -91 2816 -91 
Q 2450 -91 2169 54 
Q 1888 200 1656 506 
L 1656 0 
L 538 0 
L 538 4863 
L 1656 4863 
L 1656 2988 
z
" transform="scale(0.015625)"/>
      <path id="DejaVuSans-Bold-79" d="M 78 3500 
L 1197 3500 
L 2138 1125 
L 2938 3500 
L 4056 3500 
L 2584 -331 
Q 2363 -916 2067 -1148 
Q 1772 -1381 1288 -1381 
L 641 -1381 
L 641 -647 
L 991 -647 
Q 1275 -647 1404 -556 
Q 1534 -466 1606 -231 
L 1638 -134 
L 78 3500 
z
" transform="scale(0.015625)"/>
      <path id="DejaVuSans-Bold-43" d="M 4288 256 
Q 3956 84 3597 -3 
Q 3238 -91 2847 -91 
Q 1681 -91 1000 561 
Q 319 1213 319 2328 
Q 319 3447 1000 4098 
Q 1681 4750 2847 4750 
Q 3238 4750 3597 4662 
Q 3956 4575 4288 4403 
L 4288 3438 
Q 3953 3666 3628 3772 
Q 3303 3878 2944 3878 
Q 2300 3878 1931 3465 
Q 1563 3053 1563 2328 
Q 1563 1606 1931 1193 
Q 2300 781 2944 781 
Q 3303 781 3628 887 
Q 3953 994 4288 1222 
L 4288 256 
z
" transform="scale(0.015625)"/>
      <path id="DejaVuSans-Bold-74" d="M 1759 4494 
L 1759 3500 
L 2913 3500 
L 2913 2700 
L 1759 2700 
L 1759 1216 
Q 1759 972 1856 886 
Q 1953 800 2241 800 
L 2816 800 
L 2816 0 
L 1856 0 
Q 1194 0 917 276 
Q 641 553 641 1216 
L 641 2700 
L 84 2700 
L 84 3500 
L 641 3500 
L 641 4494 
L 1759 4494 
z
" transform="scale(0.015625)"/>
      <path id="DejaVuSans-Bold-67" d="M 2919 594 
Q 2688 288 2409 144 
Q 2131 0 1766 0 
Q 1125 0 706 504 
Q 288 1009 288 1791 
Q 288 2575 706 3076 
Q 1125 3578 1766 3578 
Q 2131 3578 2409 3434 
Q 2688 3291 2919 2981 
L 2919 3500 
L 4044 3500 
L 4044 353 
Q 4044 -491 3511 -936 
Q 2978 -1381 1966 -1381 
Q 1638 -1381 1331 -1331 
Q 1025 -1281 716 -1178 
L 716 -306 
Q 1009 -475 1290 -558 
Q 1572 -641 1856 -641 
Q 2406 -641 2662 -400 
Q 2919 -159 2919 353 
L 2919 594 
z
M 2181 2772 
Q 1834 2772 1640 2515 
Q 1447 2259 1447 1791 
Q 1447 1309 1634 1061 
Q 1822 813 2181 813 
Q 2531 813 2725 1069 
Q 2919 1325 2919 1791 
Q 2919 2259 2725 2515 
Q 2531 2772 2181 2772 
z
" transform="scale(0.015625)"/>
      <path id="DejaVuSans-Bold-6f" d="M 2203 2784 
Q 1831 2784 1636 2517 
Q 1441 2250 1441 1747 
Q 1441 1244 1636 976 
Q 1831 709 2203 709 
Q 2569 709 2762 976 
Q 2956 1244 2956 1747 
Q 2956 2250 2762 2517 
Q 2569 2784 2203 2784 
z
M 2203 3584 
Q 3106 3584 3614 3096 
Q 4122 2609 4122 1747 
Q 4122 884 3614 396 
Q 3106 -91 2203 -91 
Q 1297 -91 786 396 
Q 275 884 275 1747 
Q 275 2609 786 3096 
Q 1297 3584 2203 3584 
z
" transform="scale(0.015625)"/>
     </defs>
     <use xlink:href="#DejaVuSans-Bold-50"/>
     <use xlink:href="#DejaVuSans-Bold-61" transform="translate(70.666016 0)"/>
     <use xlink:href="#DejaVuSans-Bold-70" transform="translate(138.146484 0)"/>
     <use xlink:href="#DejaVuSans-Bold-65" transform="translate(209.728516 0)"/>
     <use xlink:href="#DejaVuSans-Bold-72" transform="translate(277.550781 0)"/>
     <use xlink:href="#DejaVuSans-Bold-73" transform="translate(326.867188 0)"/>
     <use xlink:href="#DejaVuSans-Bold-20" transform="translate(386.388672 0)"/>
     <use xlink:href="#DejaVuSans-Bold-62" transform="translate(421.203125 0)"/>
     <use xlink:href="#DejaVuSans-Bold-79" transform="translate(492.785156 0)"/>
     <use xlink:href="#DejaVuSans-Bold-20" transform="translate(557.970703 0)"/>
     <use xlink:href="#DejaVuSans-Bold-43" transform="translate(592.785156 0)"/>
     <use xlink:href="#DejaVuSans-Bold-61" transform="translate(666.173828 0)"/>
     <use xlink:href="#DejaVuSans-Bold-74" transform="translate(733.654297 0)"/>
     <use xlink:href="#DejaVuSans-Bold-65" transform="translate(781.457031 0)"/>
     <use xlink:href="#DejaVuSans-Bold-67" transform="translate(849.279297 0)"/>
     <use xlink:href="#DejaVuSans-Bold-6f" transform="translate(920.861328 0)"/>
     <use xlink:href="#DejaVuSans-Bold-72" transform="translate(989.5625 0)"/>
     <use xlink:href="#DejaVuSans-Bold-79" transform="translate(1038.878906 0)"/>
    </g>
   </g>
  </g>
 </g>
 <defs>
  <clipPath id="pa4a9a2a760">
   <rect x="101.179688" y="29.837813" width="460.595" height="208.44"/>
  </clipPath>
 </defs>
</svg>
